<svg xmlns="http://www.w3.org/2000/svg" width="444.728" height="485.464" viewBox="0 0 444.728 485.464">
  <g id="Group_141" data-name="Group 141" transform="translate(-681 -7122.536)">
    <path id="Path_77" data-name="Path 77" d="M491.418,273.548c3.024-6.1,7.948-11.835,14.6-13.275,10.741-2.361,22.346,6.94,32.309,2.275,3.254-1.5,6.767-4.463,9.935-2.736a7.286,7.286,0,0,1,2.88,5.759,37.175,37.175,0,0,1-32.165,39.709c-13.506,1.267-13.506,5.327-15.665,17.278-1.44,7.89-4.492,16.586-13.908,11.115C476.1,325.957,485.947,284.548,491.418,273.548Z" transform="translate(409.491 6863.248)" fill="#8a7886"/>
    <path id="Path_78" data-name="Path 78" d="M512.4,423.078a73.573,73.573,0,0,0,31.963,74.869,7.862,7.862,0,0,0,7.545,1.5A5.586,5.586,0,0,0,554.444,494a41.87,41.87,0,0,0-3.254-9.589,31.676,31.676,0,0,0,28.8,22.519,3.83,3.83,0,0,0,3.484-1.21c.893-1.469-.4-3.369-1.9-4.262a14.858,14.858,0,0,1-4.9-3.542,70.174,70.174,0,0,0,34.238,2.678c2.333-.432,5.01-1.238,5.759-3.484a4.924,4.924,0,0,0-2.131-5.356,18.2,18.2,0,0,0-6.335-3.052c20.848-.749,38.471-17.969,45.066-37.752a60.471,60.471,0,0,0-.288-40.544,47,47,0,0,0-28.8-27.875c-13.131-4.175-30.7.864-40.314,10.655a18.141,18.141,0,0,1,19.12-.173,28.8,28.8,0,0,1,12.095,15.694c5.759,16.039-.346,35.88-14.744,44.922-13.592,8.639-32.194,6.479-45.354-2.88s-21.136-24.477-24.189-40.314A89.786,89.786,0,0,0,512.4,423.078Z" transform="translate(462.917 7092.125)" fill="#d9bba2"/>
    <path id="Path_79" data-name="Path 79" d="M565.11,382.5a46.994,46.994,0,0,1,28.8,27.874,60.47,60.47,0,0,1,.288,40.516c-6.565,19.812-24.217,37.032-45.065,37.78a18.575,18.575,0,0,1,6.364,3.052,4.924,4.924,0,0,1,2.1,5.356c-.835,2.246-3.513,3.052-5.759,3.456a68.739,68.739,0,0,1-11.115.979,69.108,69.108,0,0,0,14.83-.892c2.333-.432,5.01-1.238,5.759-3.484a4.924,4.924,0,0,0-2.131-5.356,18.2,18.2,0,0,0-6.335-3.052c20.848-.749,38.471-17.969,45.066-37.751a60.471,60.471,0,0,0-.288-40.544,47,47,0,0,0-28.8-27.875,33.543,33.543,0,0,0-11.23-1.44A31.854,31.854,0,0,1,565.11,382.5Z" transform="translate(518.452 7092.186)" fill="#dfc5ad"/>
    <path id="Path_80" data-name="Path 80" d="M532.63,421.65a14.4,14.4,0,0,0,4.866,3.542c1.5.893,2.88,2.88,1.9,4.262a2.879,2.879,0,0,1-2.016,1.094l2.246.173a3.83,3.83,0,0,0,3.484-1.209c.893-1.469-.4-3.369-1.9-4.262a36.764,36.764,0,0,1-3.4-2.1C536.057,422.658,534.329,422.226,532.63,421.65Z" transform="translate(503.246 7168.422)" fill="#dfc5ad"/>
    <path id="Path_81" data-name="Path 81" d="M540.7,431.6a45.152,45.152,0,0,0,26.694,8.092,45.641,45.641,0,0,1-23.037-8.034c-13.131-9.186-21.136-24.477-24.188-40.314-1.209.6-2.3,1.152-3.312,1.7C520.143,408.272,528.062,422.756,540.7,431.6Z" transform="translate(473.605 7111.453)" fill="#dfc5ad"/>
    <path id="Path_82" data-name="Path 82" d="M530.339,425.368a31.348,31.348,0,0,1-4.521-6.508,22.093,22.093,0,0,1,1.065,4.089,5.557,5.557,0,0,1-2.534,5.471l-.49.2a5.327,5.327,0,0,0,4.2-.144,4.81,4.81,0,0,0,2.275-3.11Z" transform="translate(486.762 7163.18)" fill="#dfc5ad"/>
    <path id="Path_83" data-name="Path 83" d="M539.379,384.492a30.025,30.025,0,0,0-2.879,2.678,15.347,15.347,0,0,1,7.861-2.707,18.14,18.14,0,0,0-4.982.029Z" transform="translate(510.521 7098.23)" fill="#dfc5ad"/>
    <path id="Path_84" data-name="Path 84" d="M534.409,470.734c-.778-3.369-1.526-6.709-2.275-10.05a33.749,33.749,0,0,0,31.157,20.877c-1.584-3.8-3.139-7.6-4.694-11.374a33.057,33.057,0,0,0,31.272,9.272,15.206,15.206,0,0,0-8.293-6.652c20.157,6.853,46.275-5.759,53.848-25.628,7.919-20.791.979-46.361-19.063-57.045-10.655-5.759-27.874-9.7-38.558-2.16a18.141,18.141,0,0,1,19.12-.173A28.8,28.8,0,0,1,609.019,403.5c5.759,16.039-.346,35.88-14.744,44.922-13.592,8.639-32.194,6.479-45.354-2.88s-21.136-24.477-24.189-40.314a72.27,72.27,0,0,0-10.251,6.018,91.4,91.4,0,0,0,19.927,59.492Z" transform="translate(469.072 7097.311)" fill="#575351"/>
    <path id="Path_85" data-name="Path 85" d="M579.942,388.918A69.369,69.369,0,0,0,493.554,377.4c-18.688,11.346-31.675,32.8-30.149,54.712,1.641,25.571,13.908,42.1,25.081,65.165-7.084.662-5.586-1.584-12.065-4.521a26.55,26.55,0,0,0-27.673,4.031c-7.429,6.479-11.518,21.827-8.84,31.3,7.976,2.016,56.181.634,66.231-1.469,17.278-3.628,27.183,2.88,44.6.432,19.956-2.88,31.3-23.037,42.416-39.94a121.666,121.666,0,0,0,16.932-35.361,62.775,62.775,0,0,0-1.238-38.7A42.186,42.186,0,0,0,579.942,388.918Z" transform="translate(327.418 7066.246)" fill="#cca78c"/>
    <path id="Path_86" data-name="Path 86" d="M779.1,293.721c-1.209-5.356-2.88-11-6.8-14.4a10.309,10.309,0,0,0-13.62-.518,114.378,114.378,0,0,1-83.076,22.633c-28.8-3.8-56.066-19.092-85.322-18.17-27.73.864-57.592,19.7-83.681,31.906-36.715,17.278-56.757,180.522-57.592,180.233a58.687,58.687,0,0,0-.777,27.212l6.94-13.016A48.348,48.348,0,0,0,458.6,550.7a8.641,8.641,0,0,0,2.016-2.217c-6.306,31.848,8.927,84.689,46.707,117.17a33.634,33.634,0,0,0,4.377,3.139,25.6,25.6,0,0,0-23.238,33,150.54,150.54,0,0,0,26.78,4.348c10.309.49,65.683,1.612,83.1-.95,10.165-1.5,18.084-7.458,24.88-15.175A113.052,113.052,0,0,0,665.5,622.08c7.084-36.686-4.175-75.906-27.471-105.134-11.95-14.974-26.809-27.529-37.78-43.194a222.365,222.365,0,0,1-13.592-25.4c3.427-4.175-9.531-17.738-8.437-20.647,4-10.367,24.275-11.144,30.7-20.5A100.424,100.424,0,0,0,628.5,421.143c24.534,12.872,77.6,9.5,93.673-18.17.518-.921.461-.345.317,0,23.037,3.513,42.56-13.534,52.7-35.966S784.514,317.823,779.1,293.721Z" transform="translate(342.299 6895.57)" fill="#d9bba2"/>
    <path id="Path_87" data-name="Path 87" d="M542.9,320.37h-.317C542.637,320.773,542.781,320.629,542.9,320.37Z" transform="translate(521.948 6978.059)" fill="#d9bba2"/>
    <path id="Path_88" data-name="Path 88" d="M542.346,289.281c29.257-.893,56.382,14.4,85.322,18.17a114.176,114.176,0,0,0,83.047-22.634,10.424,10.424,0,0,1,13.649.518c3.974,3.542,5.586,9.186,6.8,14.542,5.414,24.1,6.393,50.479-3.859,73.17a66.241,66.241,0,0,1-6.335,10.971A67.324,67.324,0,0,0,732.111,367c10.251-22.662,9.272-48.953,3.859-73.17-1.209-5.356-2.88-11-6.8-14.4a10.4,10.4,0,0,0-13.649-.547,114.146,114.146,0,0,1-83.047,22.662c-28.8-3.8-56.066-19.092-85.322-18.17-27.73.864-58.225,13.188-76.136,35.793-.518.634-.95,1.325-1.469,1.987C487.346,300.8,516.286,290.174,542.346,289.281Z" transform="translate(384.682 6895.777)" fill="#dfc5ad"/>
    <path id="Path_89" data-name="Path 89" d="M546.615,298.445a3.081,3.081,0,1,0,3.28,2.786A3.081,3.081,0,0,0,546.615,298.445Z" transform="translate(524.421 6936.834)" fill="#472b3c"/>
    <path id="Path_90" data-name="Path 90" d="M543.771,301.92a3.11,3.11,0,1,0,3.077,2.821A3.11,3.11,0,0,0,543.771,301.92Z" transform="translate(519.461 6943.379)" fill="#472b3c"/>
    <path id="Path_91" data-name="Path 91" d="M550.213,302.008a3.036,3.036,0,1,0,3.3,2.75A3.036,3.036,0,0,0,550.213,302.008Z" transform="translate(531.103 6943.521)" fill="#472b3c"/>
    <path id="Path_92" data-name="Path 92" d="M495.756,289.59a9.071,9.071,0,0,1,4.9-4.636c3.4-1.987,7.689-3.081,9.531.288s-1.3,5.443-3.628,6.738a14.656,14.656,0,0,1-8.264,1.7,3.081,3.081,0,0,1-2.534-4.089Z" transform="translate(433.604 6907.965)" fill="#472b3c"/>
    <path id="Path_93" data-name="Path 93" d="M503.382,303.286c5.068,0,9.445.749,13.707-2.88,6.22-5.183.835-10.194-3.8-13.793a1.008,1.008,0,0,1,.6-1.843c7.6.288,13.275,9.387,9.1,15.982s-14.225,10.626-20.848,6.1a1.987,1.987,0,0,1,1.238-3.571Z" transform="translate(444.465 6911.145)" fill="#472b3c"/>
    <path id="Path_94" data-name="Path 94" d="M678.826,318.088c-24.16,28.422-56.613,54.712-94.134,63.639-30.322,7.141-90.275,1.325-95.314-38.644a24.534,24.534,0,0,1,4.579-18.17c6.45-8.207,18.487-10.28,28.566-7.6s18.6,9.33,26.521,16.1,15.723,14.024,25.2,18.4c17.71,8.236,38.9,5.183,56.728-2.88a111.182,111.182,0,0,0,49.7-44.518C678.826,309.449,682.2,314.057,678.826,318.088Z" transform="translate(421.467 6948.059)" fill="#e5cfc1"/>
    <path id="Path_95" data-name="Path 95" d="M580.218,340.565A84.862,84.862,0,0,1,541.43,383.3c24.506,4.607,47.773-15.55,56.555-36.974,7.4-18.055,8.178-38.558,5.529-58.4a7.136,7.136,0,0,0-1.123-.288C588.367,286.371,584.653,329.651,580.218,340.565Z" transform="translate(519.787 6916.484)" fill="#cca78c"/>
    <path id="Path_96" data-name="Path 96" d="M546.17,368.342h0c22.749-12.613,43.05-43.367,44.49-72.134,0-.864-2.3-1.987-2.62-.979-4.118,13.937-6.767,29.832-13.822,42.359a81.462,81.462,0,0,1-33.547,32.6C542.513,369.609,544.5,369,546.17,368.342Z" transform="translate(518.358 6930.057)" fill="#b8896a"/>
    <path id="Path_97" data-name="Path 97" d="M541.25,296.923a52.437,52.437,0,0,0,23.814,27.99,79.593,79.593,0,0,0,40.314,8.9,133.206,133.206,0,0,0-4.118-40.573,25.342,25.342,0,0,0-6.94-13.908,10.741,10.741,0,0,0-13.592-.634,114.952,114.952,0,0,1-39.479,18.228Z" transform="translate(519.448 6895.738)" fill="#472b3c"/>
    <path id="Path_98" data-name="Path 98" d="M575.442,282.312a115.168,115.168,0,0,1-13.62,7.4h0a117.2,117.2,0,0,1-20.532,7.17,41.739,41.739,0,0,0,1.584,3.945c1.238,2.88,32.366-15.723,36.024-17.278,7.8-3.225,15.982-2.534,19.264,6.1a118.7,118.7,0,0,1,7.775,44.058,115.459,115.459,0,0,0-2.217-31.675c-1.21-6.652-1.9-19.408-8.409-23.325a13.131,13.131,0,0,0-14.4,0C579.013,279.951,577.227,281.161,575.442,282.312Z" transform="translate(519.524 6895.719)" fill="#634357"/>
    <path id="Path_99" data-name="Path 99" d="M489.684,328.484A93.015,93.015,0,0,0,502.008,343.2a28.047,28.047,0,0,0,41.149-.806,25.312,25.312,0,0,0,8.955-17.278,26.291,26.291,0,0,0-5.759-15.406A47.743,47.743,0,0,0,516.925,290.7c-9.7-1.756-24.246,0-31.848,7.026C475.948,306.311,484.126,320.622,489.684,328.484Z" transform="translate(406.158 6921.105)" fill="#705b6f"/>
    <path id="Path_100" data-name="Path 100" d="M491.361,294.518a8.985,8.985,0,0,0-2.592,6.249c-.691,3.859-.173,8.264,3.628,8.639,3.34.461,4.636-3.139,5.039-5.759a14.914,14.914,0,0,0-1.353-8.351,3.052,3.052,0,0,0-4.723-.778Z" transform="translate(420.318 6927.975)" fill="#472b3c"/>
    <path id="Path_101" data-name="Path 101" d="M495.392,313.888c5.068,0,9.474.72,13.707-2.88,6.22-5.212.835-10.194-3.8-13.793a1.008,1.008,0,0,1,.633-1.843c7.573.259,13.275,9.387,9.071,15.953s-14.225,10.626-20.848,6.134a1.987,1.987,0,0,1,1.238-3.571Z" transform="translate(429.447 6931.066)" fill="#472b3c"/>
    <path id="Path_102" data-name="Path 102" d="M476.26,303.912c0-.432.633-.72.806-.259,11.518,30.207,18.343,55.6,47.513,73.631a.634.634,0,0,1-.547,1.123C495.352,366.918,480.119,332.737,476.26,303.912Z" transform="translate(397.294 6946.195)" fill="#cca78c"/>
    <path id="Path_103" data-name="Path 103" d="M460.635,394.084a29.746,29.746,0,0,0,20.618,14.974A20.906,20.906,0,0,0,503.138,398c-4,15.463-1.641,32.021,3.743,47.024s13.736,28.8,22,42.445a29.948,29.948,0,0,0-31.042-6.623c-2.88,1.123-17.278-19.121-19.178-21.712a145.93,145.93,0,0,1-15.348-27.471c-3.023-7.113-18.746-52.581-8.639-54.712A66.225,66.225,0,0,0,460.635,394.084Z" transform="translate(350.432 7084.404)" fill="#d2b196"/>
    <path id="Path_104" data-name="Path 104" d="M450.267,358.55l-.6,1.008-.432,1.872C449.576,360.479,449.863,359.471,450.267,358.55Z" transform="translate(346.489 7049.82)" fill="#dfc5ad"/>
    <path id="Path_105" data-name="Path 105" d="M552.4,418.267c-11.95-14.974-26.809-27.529-37.78-43.194-9.762-13.995-16.039-29.948-22.029-46.073,6.191,19.38,12.008,38.99,22.778,56.066,10.223,16.212,24.505,29.429,35.736,44.922,21.943,30.293,31.388,69.974,22.6,106.314a111.308,111.308,0,0,1-12.584,30.668A113.054,113.054,0,0,0,579.87,523.4C586.954,486.571,575.7,447.351,552.4,418.267Z" transform="translate(427.988 6994.279)" fill="#dfc5ad"/>
    <path id="Path_106" data-name="Path 106" d="M529.781,368.887c-27.385,2.707-54.05,19.466-60.644,47.542-6.854,29.285,7.976,56.843,25.139,79.736-8.322-4.9-15.233-3.686-23.7-1.152h0l.4.317a23.988,23.988,0,0,1,9.042.49c7.314,1.67,13.16,6.479,20.157,8.783a1.5,1.5,0,0,0,1.209-.173,5.1,5.1,0,0,0,1.325.806.922.922,0,0,0,1.094-1.3,5.212,5.212,0,0,0-.806-.979,1.728,1.728,0,0,0-.2-1.612h0c-.749-2.246-1.641-4.463-2.592-6.623a1.382,1.382,0,0,0-.259-.72,2.635,2.635,0,0,0-.317-.461c-.633-1.382-1.3-2.736-2.016-4.06.2-1.008-.4-2.131-1.843-3.427-4.636-8.149-10.079-15.924-14.4-24.246a147.344,147.344,0,0,1-5.9-20.935c-1.584-22.893,6.882-41.437,26.578-59.262h0a85.122,85.122,0,0,1,28.594-9.157C532.891,372.112,532.055,368.657,529.781,368.887Z" transform="translate(380.689 7069.23)" fill="#b8896a"/>
    <path id="Path_107" data-name="Path 107" d="M588.309,461.176a136.261,136.261,0,0,0-28.8-69.283c-11.95-14.974-26.809-27.529-37.78-43.194-1.3-1.843-2.505-3.743-3.686-5.759a30.21,30.21,0,0,0-1.785,4.06c-2.88,8.639-2.736,18.055-6.479,26.262-2.88,6.45-8.063,11.518-11.922,17.566a62.084,62.084,0,0,0-8.639,39.479,108.675,108.675,0,0,0,12.44,38.99c5.068,9.906,11.518,19.639,20.848,25.484s22.691,6.825,31.215-.317c7.516-6.249,9.906-17.1,17.278-23.469C576.071,466.762,582.867,464.891,588.309,461.176Z" transform="translate(420.873 7020.48)" fill="#705b6f"/>
    <path id="Path_108" data-name="Path 108" d="M498.346,347.134a.692.692,0,0,0,0,.23,118.376,118.376,0,0,0,6.277,11.374c10.223,16.212,24.505,29.429,35.736,44.922a136.694,136.694,0,0,1,24.534,60.673,47.448,47.448,0,0,0,5.558-3.11,1.245,1.245,0,0,0,0-.317c-.144-1.469-.346-2.88-.547-4.377s-.374-2.275-.576-3.427-.288-1.613-.461-2.419-.432-2.217-.662-3.312-.662-2.88-1.036-4.319-.633-2.3-.95-3.427-.547-1.9-.835-2.88-.6-1.9-.921-2.88q-.807-2.477-1.728-4.924l-.893-2.275c-.489-1.181-.95-2.332-1.44-3.484l-1.008-2.246c-.777-1.728-1.555-3.427-2.39-5.1l-.749-1.411c-.72-1.411-1.469-2.88-2.246-4.175l-.95-1.7c-1.008-1.728-2.045-3.456-3.11-5.126l-.4-.6c-1.008-1.555-2.045-3.11-3.139-4.636l-.95-1.325c-1.209-1.7-2.448-3.34-3.743-4.982-11.95-14.974-26.809-27.529-37.78-43.194-1.3-1.843-2.505-3.743-3.686-5.759a31.881,31.881,0,0,0-1.9,4.2Z" transform="translate(438.789 7020.461)" fill="#705b6f"/>
    <path id="Path_109" data-name="Path 109" d="M465.995,430.219a27.7,27.7,0,0,1,6.825-12.008.979.979,0,0,0-1.325-1.44,23.9,23.9,0,0,0-8.639,22.518l2.88.634a28.217,28.217,0,0,1,.259-9.7Z" transform="translate(371.506 7158.816)" fill="#b8896a"/>
    <path id="Path_110" data-name="Path 110" d="M473.5,419.249a1.209,1.209,0,0,0-1.843-1.555c-5.759,5.442-5.759,14.571-5.759,22.029l3.311.518C469.068,432.5,469.384,425.988,473.5,419.249Z" transform="translate(377.821 7160.313)" fill="#b8896a"/>
    <path id="Path_111" data-name="Path 111" d="M443.928,428.2a27.442,27.442,0,0,1,6.825-11.979.979.979,0,0,0-1.325-1.44c-6.882,5.183-11.23,16.673-7.746,25.052l2.246.144a35.16,35.16,0,0,1,0-11.778Z" transform="translate(329.992 7155.078)" fill="#b8896a"/>
    <path id="Path_112" data-name="Path 112" d="M451.423,417.24c.691-1.152-.806-2.563-1.843-1.555-5.99,5.759-5.759,15.406-5.759,23.037H447.1C446.873,430.832,447.219,424.151,451.423,417.24Z" transform="translate(336.319 7156.563)" fill="#b8896a"/>
    <path id="Path_113" data-name="Path 113" d="M490.918,333.578c-.922-.691-1.814.6-1.209,1.44a17.655,17.655,0,0,1,1.987,3.225,13.063,13.063,0,0,0,1.555,3.024,1.123,1.123,0,0,0,1.9-.691C495.439,337.868,492.79,335.161,490.918,333.578Z" transform="translate(422.201 7002.516)" fill="#d2b196"/>
    <path id="Path_114" data-name="Path 114" d="M489.322,335.721c-.864-1.469-3.225-.23-2.332,1.209a24.621,24.621,0,0,0,4.348,6.306c.633.518,1.5-.259,1.353-.95a23.264,23.264,0,0,0-3.369-6.566Z" transform="translate(417.088 7005.67)" fill="#d2b196"/>
    <path id="Path_115" data-name="Path 115" d="M495.906,337.676a1.423,1.423,0,1,0-2.534,1.3,24.247,24.247,0,0,0,3.974,6.853,1.209,1.209,0,0,0,2.073-1.065A23.958,23.958,0,0,0,495.906,337.676Z" transform="translate(429.164 7009.129)" fill="#d2b196"/>
    <path id="Path_116" data-name="Path 116" d="M496.92,347.36a15.673,15.673,0,0,0-1.872-3.4c-.691-1.181-1.325-2.39-1.929-3.571s-3.081-.6-2.563.922a15.176,15.176,0,0,0,4.377,7.4C495.8,349.347,497.266,348.425,496.92,347.36Z" transform="translate(424.032 7014.506)" fill="#d2b196"/>
    <path id="Path_117" data-name="Path 117" d="M488.744,341.916c-.72-1.152-2.62-.173-1.872.979a25.349,25.349,0,0,0,4,5.759c.576.49,1.526-.23,1.324-.921A24.706,24.706,0,0,0,488.744,341.916Z" transform="translate(416.917 7017.588)" fill="#d2b196"/>
    <path id="Path_118" data-name="Path 118" d="M498.832,354.5c-.317-1.353-1.613-2.1-2.419-3.2a12.836,12.836,0,0,1-1.9-3.887,1.327,1.327,0,1,0-2.592.576,11.692,11.692,0,0,0,1.785,4.924c.835,1.325,2.044,3.139,3.772,3.2a1.325,1.325,0,0,0,1.353-1.613Z" transform="translate(426.67 7026.943)" fill="#d2b196"/>
    <path id="Path_119" data-name="Path 119" d="M501.686,349.212a23.038,23.038,0,0,0-4.866-5.99,1.411,1.411,0,0,0-2.073,1.872,22.287,22.287,0,0,0,5.154,5.759,1.238,1.238,0,0,0,1.786-1.641Z" transform="translate(431.59 7020.398)" fill="#d2b196"/>
    <path id="Path_120" data-name="Path 120" d="M521.243,389.446c-.346-1.987-3.312-1.3-3.052.691a12.642,12.642,0,0,0,1.325,5.557,1.325,1.325,0,0,0,2.246-.49,13.159,13.159,0,0,0-.518-5.759Z" transform="translate(476.076 7105.658)" fill="#d2b196"/>
    <path id="Path_121" data-name="Path 121" d="M523.713,389.125c-.346-1.382-2.62-1.325-2.592.23a19.667,19.667,0,0,0,1.612,9.013.979.979,0,0,0,1.785-.144A19.951,19.951,0,0,0,523.713,389.125Z" transform="translate(481.553 7105.432)" fill="#d2b196"/>
    <path id="Path_122" data-name="Path 122" d="M521.764,394.4a1.382,1.382,0,0,0-2.707.23,42.265,42.265,0,0,0-.375,6.277,1.152,1.152,0,0,0,1.872.6A9.158,9.158,0,0,0,521.764,394.4Z" transform="translate(477.023 7115.303)" fill="#d2b196"/>
    <path id="Path_123" data-name="Path 123" d="M519.162,394.63a1.3,1.3,0,0,0-2.563,0,22.257,22.257,0,0,0,0,6.767,1.123,1.123,0,0,0,2.16,0A23.034,23.034,0,0,0,519.162,394.63Z" transform="translate(472.628 7115.563)" fill="#d2b196"/>
    <path id="Path_124" data-name="Path 124" d="M520.11,402.175a40.319,40.319,0,0,0-2.88,8.783.922.922,0,0,0,1.527.72,21.827,21.827,0,0,0,3.83-8.639,1.353,1.353,0,0,0-2.476-.864Z" transform="translate(474.3 7130.68)" fill="#d2b196"/>
    <path id="Path_125" data-name="Path 125" d="M474.546,385.949c-2.39,3.571-4.809,8.639-3.225,13.073.432,1.152,2.1.806,2.448-.173a51.844,51.844,0,0,0,.95-5.759,23.7,23.7,0,0,1,1.958-5.759C477.4,385.891,475.468,384.538,474.546,385.949Z" transform="translate(387.057 7100.199)" fill="#d2b196"/>
    <path id="Path_126" data-name="Path 126" d="M479.029,379.874a8.063,8.063,0,0,0-5.759,7.516,1.123,1.123,0,0,0,1.843.576,33.847,33.847,0,0,0,2.3-3.311,21.175,21.175,0,0,0,2.678-3.139,1.094,1.094,0,0,0-1.066-1.641Z" transform="translate(391.674 7089.889)" fill="#d2b196"/>
    <path id="Path_127" data-name="Path 127" d="M480.16,383.11c-3.2.374-5.586,5.5-5.039,8.351.144.72,1.267,1.008,1.612.317a44.9,44.9,0,0,1,1.9-4.118,18.33,18.33,0,0,0,2.419-3.542.777.777,0,0,0-.893-1.008Z" transform="translate(395.006 7095.955)" fill="#d2b196"/>
    <path id="Path_128" data-name="Path 128" d="M484.187,378.169a7.2,7.2,0,0,0-3.11,2.131,20.178,20.178,0,0,0-2.879,2.88,1.181,1.181,0,0,0,1.555,1.7,20.8,20.8,0,0,0,3.2-2.563,7.343,7.343,0,0,0,2.419-2.88,1.037,1.037,0,0,0-1.181-1.267Z" transform="translate(400.54 7086.67)" fill="#d2b196"/>
    <path id="Path_129" data-name="Path 129" d="M487.18,374.638a9.445,9.445,0,0,0-9.416,5.759,1.181,1.181,0,0,0,1.9,1.238,27.5,27.5,0,0,1,3.657-3.168,43.618,43.618,0,0,1,4.233-1.987A1.016,1.016,0,0,0,487.18,374.638Z" transform="translate(400.023 7080.008)" fill="#d2b196"/>
    <path id="Path_130" data-name="Path 130" d="M490.594,373.643a8.639,8.639,0,0,0-6.911,2.736,1.349,1.349,0,0,0,1.5,2.188,19.572,19.572,0,0,1,2.88-1.641,10.2,10.2,0,0,0,2.879-1.3,1.181,1.181,0,0,0-.345-1.987Z" transform="translate(410.489 7078.152)" fill="#d2b196"/>
    <path id="Path_131" data-name="Path 131" d="M474.33,398.4a20.157,20.157,0,0,1-.316-4.579,1.181,1.181,0,1,0-2.361,0,13.62,13.62,0,0,0,1.612,9.244,1.037,1.037,0,0,0,1.785-.634,20.345,20.345,0,0,0-.72-4.031Z" transform="translate(388.224 7113.895)" fill="#d2b196"/>
    <path id="Path_132" data-name="Path 132" d="M475.543,389.953a18.259,18.259,0,0,0-1.123,6.018,6.82,6.82,0,0,0,.432,2.016,1.023,1.023,0,0,0,1.987,0,11.859,11.859,0,0,0,.518-1.987l.173-1.728c.173-1.325.4-2.649.576-3.974S476.09,388.715,475.543,389.953Z" transform="translate(393.835 7107.34)" fill="#d2b196"/>
    <path id="Path_133" data-name="Path 133" d="M477.565,400.628a13.209,13.209,0,0,0-.317-3.513,1.238,1.238,0,0,0-2.361,0,8.12,8.12,0,0,0,1.3,7.458.893.893,0,0,0,1.555-.547,17.806,17.806,0,0,0-.173-3.4Z" transform="translate(393.973 7120.68)" fill="#d2b196"/>
    <path id="Path_134" data-name="Path 134" d="M465.228,357.393c-1.008.346-1.9.922-2.88,1.3a10.973,10.973,0,0,1-3.34.547.547.547,0,0,0-.23,1.008,5.385,5.385,0,0,0,7.257-1.929.662.662,0,0,0-.806-.921Z" transform="translate(363.951 7047.58)" fill="#d2b196"/>
    <path id="Path_135" data-name="Path 135" d="M494.823,319.993v-.432a5.385,5.385,0,0,1,5.414-4.953,7.949,7.949,0,0,1,1.872-.288c2.1,0,3.139,2.736,2.016,4.291a2.506,2.506,0,0,1-.461.662c37.694,37.665,86.042,35.995,130.5,10.424,1.7-.979,1.526,0,0,1.209-39.566,29-101.16,31.1-133.267-9.906l-.4.2a15.023,15.023,0,0,0,0,2.3c0,2.88-2.62,3.427-4.435,1.469A5.528,5.528,0,0,1,494.823,319.993Z" transform="translate(431.888 6966.688)" fill="#472b3c"/>
    <path id="Path_136" data-name="Path 136" d="M620.835,667.242a71.155,71.155,0,0,0-46.851-47.225c-5.039-44.346-10.683-181.414,0-238.027,0,.432,21.885-11.2,23.872-12.843a66.433,66.433,0,0,0,16.068-19.38c8.639-15.492,11.518-33.662,5.759-50.277-8.869-25.916-44.72-50.8-74.034-31.819a64.993,64.993,0,0,0-24.217,32.05A70.665,70.665,0,0,0,517.4,321.4c-1.065-22.749-13.3-48.723-37.031-57.592-19.984-7.429-43.194,1.238-56.555,15-15.031,15.463-16.586,36.744-12.44,55.893a71.27,71.27,0,0,0,46.88,47.254c12.555,62.286,6.969,193.681,0,238.027A71.155,71.155,0,0,0,411.4,667.213c-10.453,36.11,25.657,92.147,74.207,68.793,21.367-10.251,30.437-34.238,30.466-55.806a174.086,174.086,0,0,0,8.351,31.3c14.4,25.916,45.383,39.508,73.6,19.725A59.579,59.579,0,0,0,620.835,667.242ZM515.73,337.472Z" transform="translate(271.608 6866.449)" fill="#f6f3e7"/>
    <path id="Path_137" data-name="Path 137" d="M512.184,280.216c5.759,16.644,2.736,34.814-5.759,50.306a66.9,66.9,0,0,1-16.068,19.38c-1.987,1.641-23.958,13.246-23.872,12.814-10.683,56.584-5.039,203.385,0,247.645a63.344,63.344,0,0,1,10.885,4.319c-4.809-50.479-9.416-186.655.749-240.388,0,.432,21.885-11.2,23.872-12.843a66.435,66.435,0,0,0,16.068-19.38c8.639-15.492,11.518-33.662,5.759-50.278a59.2,59.2,0,0,0-19.955-26.752,53.185,53.185,0,0,1,8.322,15.176Z" transform="translate(367.503 6874.061)" fill="#eae8d6"/>
    <path id="Path_138" data-name="Path 138" d="M542.535,425.151a72.189,72.189,0,0,0-24.188-35.362A69.8,69.8,0,0,1,530.9,413.518a59.579,59.579,0,0,1-22.806,64.013,46.736,46.736,0,0,1-57.045-.6c15.78,20.819,43.338,30.005,68.678,12.238A59.579,59.579,0,0,0,542.535,425.151Z" transform="translate(349.909 7108.539)" fill="#eae8d6"/>
    <path id="Path_139" data-name="Path 139" d="M503.6,433.841c11.317-17.537-6.249-18.545-8.351-31.3,0,21.568-9.128,45.555-30.466,55.806-19.61,9.445-37.2,5.9-50.508-4.031,13.62,17.854,36.081,28.191,62.141,15.665,14.686-7.026,23.555-20.56,27.673-35.333C503.95,434.359,503.432,434.1,503.6,433.841Z" transform="translate(280.797 7132.504)" fill="#eae8d6"/>
    <path id="Path_140" data-name="Path 140" d="M484.594,275.741c-10.655-18.314-39.94-11.922-53.071-.662-16.356,14.024-26.377,41.207-10.683,59.492,2.333,2.707,6.249-.23,5.759-3.254-4.06-18.573-4.463-33.922,10.914-47.8a31.993,31.993,0,0,1,21.8-8.84c7.976,0,13.966,4.463,21.367,6.335a3.657,3.657,0,0,0,3.916-5.27Z" transform="translate(278.355 6872.516)" fill="#fff7e7"/>
    <path id="Path_141" data-name="Path 141" d="M518.077,278.216c-8.178-14.254-30.581-15.348-44.115-9.157-13.995,6.364-25.657,22.374-22.749,38.212.576,3.139,5.241,2.88,6.018,0,3.657-13.3,8.236-26.32,23.037-30.639,12.9-3.772,22.058,2.88,33.374,7.343C516.982,285.27,519.632,280.98,518.077,278.216Z" transform="translate(349.372 6874.879)" fill="#fff7e7"/>
    <path id="Path_142" data-name="Path 142" d="M456.435,479.714c-16.471-10.827-32.251-17.278-34.094-40.314-2.016-24.995,15.521-29.746,28.8-45.642a1.872,1.872,0,0,0-1.814-3.11c-24.678,4.463-39.738,30.9-35.966,54.511,3.139,19.437,20.157,44.662,42.272,41.149C458.911,485.905,458.8,481.269,456.435,479.714Z" transform="translate(277.977 7110.043)" fill="#fff7e7"/>
    <path id="Path_143" data-name="Path 143" d="M468.84,389.9c-12.008,8.639-24.477,26.694-16.932,42.042a3.455,3.455,0,0,0,6.22-.806c1.958-5.759,1.987-12.123,4.118-18.055a47.456,47.456,0,0,1,10.971-17.479C476.1,392.812,472.238,387.427,468.84,389.9Z" transform="translate(347.208 7107.561)" fill="#fff7e7"/>
    <path id="Path_144" data-name="Path 144" d="M437.011,303.962c-.72-1.469-2.88-.691-2.88.806-.288,19.351,5.068,38.673,6.479,58.053a528.225,528.225,0,0,1,.778,58.859c-1.5,39.537-6.393,78.843-11.317,118.063-.576,4.579,6.594,4.492,7.2,0,5.558-41.639,11.058-83.364,12.152-125.406C450.257,380.185,452.446,335.321,437.011,303.962Z" transform="translate(310.417 6945.742)" fill="#fff7e7"/>
    <path id="Path_145" data-name="Path 145" d="M533.951,355.23c-8.408,10.568-13.275,20.5-27.068,25.11a82.9,82.9,0,0,1-39.594,3.974c-1.93-.346-2.88,2.534-.806,2.879,27.212,6.393,58.715-3.657,69.715-30.668C536.773,355.432,534.786,354.28,533.951,355.23Z" transform="translate(376.721 7042.918)" fill="#b8896a"/>
    <path id="Path_146" data-name="Path 146" d="M512.047,355.235c-7.516-2.592-15.9-1.3-23.67-2.88a50.737,50.737,0,0,1-21.165-9.5c-1.7-1.267-3.686,1.469-2.217,2.88,10.712,10.655,32.511,16.5,47.052,11.893a1.325,1.325,0,0,0,0-2.39Z" transform="translate(375.156 7019.703)" fill="#b8896a"/>
    <path id="Path_147" data-name="Path 147" d="M460.391,327.509a11.691,11.691,0,0,0-.432-11.375c-5.529-9.272-18.861-9.733-27.73-5.558-12.526,5.759-16.644,23.382-14.4,36.024a27.1,27.1,0,0,0,19.236,21.683l1.469.374c8.293,1.843,19.38.662,20.733-9.5.806-6.076-3.139-6.94-7.746-8.639,5.471,1.037,8.927-6.364,8.38-11.922a9.56,9.56,0,0,0-4.607-6.709A10.166,10.166,0,0,0,460.391,327.509Z" transform="translate(286.374 6954.908)" fill="#d9bba2"/>
    <path id="Path_148" data-name="Path 148" d="M447.421,317.846c-2.88-2.419-6.94-2.592-10.51-2.88a45.065,45.065,0,0,0-13.764.4c-1.152.23-.806,1.929.288,1.987,4.435.173,8.84.173,13.275.749,3.427.432,6.911,1.872,10.338,1.238a.835.835,0,0,0,.374-1.5Z" transform="translate(296.119 6967.25)" fill="#b8896a"/>
    <path id="Path_149" data-name="Path 149" d="M445.126,323.26a75.974,75.974,0,0,0-10.568-.461c-4-.23-8.005-.749-12.008-.979a.72.72,0,0,0-.2,1.411c6.681,1.843,16.01,3.283,22.778,1.613a.835.835,0,0,0,0-1.584Z" transform="translate(294.988 6980.783)" fill="#b8896a"/>
    <path id="Path_150" data-name="Path 150" d="M475,320.619l-12.728,1.641L460.75,316.5H454.99l-1.267,5.759-13.073-1.267,10.194-34.123,14.254-.72Zm-15.175-11.864-1.958-8.9-1.814,8.9Z" transform="translate(330.362 6913.738)" fill="#705b6f"/>
    <path id="Path_151" data-name="Path 151" d="M470.86,318.249a20.157,20.157,0,0,1-.922,6.422,16.962,16.962,0,0,1-2.563,5.039,15.606,15.606,0,0,1-3.945,3.715,22.519,22.519,0,0,1-4.982,2.534,28.4,28.4,0,0,1-5.759,1.44,40.754,40.754,0,0,1-6.277.461h-2.361a9.47,9.47,0,0,1-2.361-.2l.72-33.346a32.145,32.145,0,0,1,5.759-1.267,45.6,45.6,0,0,1,5.932-.374,20.877,20.877,0,0,1,6.709,1.037,14.628,14.628,0,0,1,5.327,2.88,13.966,13.966,0,0,1,3.455,4.9,16.818,16.818,0,0,1,1.267,6.767Zm-17.422,9.819a8.349,8.349,0,0,0,2.88-.922,9.213,9.213,0,0,0,2.188-1.728,7.919,7.919,0,0,0,1.411-2.361,7.684,7.684,0,0,0,.518-2.88,11.519,11.519,0,0,0-.317-2.707,6.017,6.017,0,0,0-1.008-2.217,4.9,4.9,0,0,0-1.814-1.5,7.543,7.543,0,0,0-2.88-.6Z" transform="translate(332.316 6944.789)" fill="#705b6f"/>
    <path id="Path_152" data-name="Path 152" d="M473.49,334.984a19.189,19.189,0,0,1-.547,4.492,17.68,17.68,0,0,1-1.555,4.06,16.3,16.3,0,0,1-2.448,3.456,15.35,15.35,0,0,1-3.254,2.707,15.7,15.7,0,0,1-3.945,1.757,15.259,15.259,0,0,1-4.492.634,15.982,15.982,0,0,1-8.322-2.246,14.829,14.829,0,0,1-3.283-2.563,15.666,15.666,0,0,1-2.505-3.311,16.962,16.962,0,0,1-1.613-3.945,15.749,15.749,0,0,1-.576-4.377,18.571,18.571,0,0,1,.518-4.377,19.464,19.464,0,0,1,1.555-4.031,18.483,18.483,0,0,1,2.448-3.484,16.241,16.241,0,0,1,3.225-2.736,14.4,14.4,0,0,1,3.859-1.785,14.623,14.623,0,0,1,4.377-.662,18.86,18.86,0,0,1,6.767,1.181,14.2,14.2,0,0,1,8.639,8.466,18.058,18.058,0,0,1,1.152,6.767Zm-11.374.662a6.621,6.621,0,0,0-.345-2.131,5.526,5.526,0,0,0-.921-1.843,4.837,4.837,0,0,0-1.526-1.325,4.4,4.4,0,0,0-2.073-.489,4.982,4.982,0,0,0-3.8,1.613,6.049,6.049,0,0,0-1.037,1.785,6.476,6.476,0,0,0-.345,2.131,7,7,0,0,0,.317,2.16,5.756,5.756,0,0,0,.922,1.929,4.379,4.379,0,0,0,1.5,1.411,4.061,4.061,0,0,0,2.131.547,4.751,4.751,0,0,0,2.16-.461,5.125,5.125,0,0,0,1.641-1.3,5.759,5.759,0,0,0,1.008-1.872,6.8,6.8,0,0,0,.374-2.16Z" transform="translate(330.925 6974.674)" fill="#705b6f"/>
    <path id="Path_153" data-name="Path 153" d="M471.341,362.436a12.179,12.179,0,0,1-.749,4.406,10.455,10.455,0,0,1-2.044,3.369,11.894,11.894,0,0,1-2.88,2.448,20.665,20.665,0,0,1-3.743,1.613,27.222,27.222,0,0,1-4.089.921,35.276,35.276,0,0,1-4.175.317v10.914H441.71V351.378a44.818,44.818,0,0,1,6.566-1.469,47.094,47.094,0,0,1,6.767-.49,26.314,26.314,0,0,1,3.945.317,18.678,18.678,0,0,1,3.772,1.008,16.645,16.645,0,0,1,3.34,1.728,11.514,11.514,0,0,1,2.678,2.476,11.259,11.259,0,0,1,1.785,3.283A12.293,12.293,0,0,1,471.341,362.436Zm-11.374.893a3.457,3.457,0,0,0-1.008-2.621,3.859,3.859,0,0,0-2.649-.921h-1.094l-1.094.2-.317,7.487h1.382a5.3,5.3,0,0,0,1.785-.317,4.667,4.667,0,0,0,1.526-.864,4.147,4.147,0,0,0,1.065-1.382,3.829,3.829,0,0,0,.26-1.584Z" transform="translate(332.354 7032.66)" fill="#705b6f"/>
    <path id="Path_154" data-name="Path 154" d="M469.959,365.85l-.259,10.885-7.631.288-.921,23.785-10.827.547-.979-23.757-7.631.4.317-12.094Z" transform="translate(332.354 7063.541)" fill="#705b6f"/>
    <path id="Path_155" data-name="Path 155" d="M470.726,389.056l-1.641,26.32-8.178.345V401.871l-3.686,11.173h-3.168l-2.88-9.992V414.57l-8.293.23.374-24.736,9.215-.374,3.628,11.864,4.9-12.584Z" transform="translate(334.553 7106.998)" fill="#705b6f"/>
    <path id="Path_156" data-name="Path 156" d="M464.679,411.928a22.561,22.561,0,0,1-.2,3.11,39.58,39.58,0,0,0-6.1.662l-6.047.864a4.462,4.462,0,0,0,1.469,2.044,3.685,3.685,0,0,0,2.361.777,5.158,5.158,0,0,0,1.555-.259,12.363,12.363,0,0,0,1.7-.691,14.364,14.364,0,0,0,1.613-.864l1.325-.835-.864,8.12a7.231,7.231,0,0,1-1.5.921,9.188,9.188,0,0,1-1.7.6,9.326,9.326,0,0,1-1.785.346,12,12,0,0,1-1.756,0,10.365,10.365,0,0,1-3.225-.489,9.217,9.217,0,0,1-2.649-1.354,10.11,10.11,0,0,1-2.1-2.044,12.149,12.149,0,0,1-1.5-2.592,15.832,15.832,0,0,1-.893-2.879,16.849,16.849,0,0,1-.288-3.168,18.932,18.932,0,0,1,.288-3.34,17.615,17.615,0,0,1,.921-3.2,15.037,15.037,0,0,1,1.555-2.88,11.231,11.231,0,0,1,2.217-2.3,9.962,9.962,0,0,1,2.88-1.555,10.455,10.455,0,0,1,3.513-.547,9.332,9.332,0,0,1,2.88.432,7.868,7.868,0,0,1,2.333,1.238,8.47,8.47,0,0,1,1.814,1.843,10.828,10.828,0,0,1,1.238,2.361,13.349,13.349,0,0,1,.749,2.707A19.1,19.1,0,0,1,464.679,411.928Zm-7.17-.922a6.288,6.288,0,0,0,0-1.037,3.454,3.454,0,0,0-.374-.95,2.159,2.159,0,0,0-.634-.72,1.7,1.7,0,0,0-1.152-.375,2.188,2.188,0,0,0-1.267.374,3.744,3.744,0,0,0-.921.979,5.12,5.12,0,0,0-.662,1.238,9.9,9.9,0,0,0-.374,1.267l5.3-.49Z" transform="translate(336.827 7128.443)" fill="#705b6f"/>
    <path id="Path_157" data-name="Path 157" d="M592.285,376.575c-13.966,4.435-22.173,8.927-36.11,5.759,2.62-.633-14.945-1.065-17.076-1.843-9.56.777-15.665-5.1-23.037-11.518-7.89-6.825-13.966-15.463-21.05-23.037s-15.838-14.4-26.147-16.1a29.631,29.631,0,0,0-34.181,29.4c0,4.636-.259,8.408,2.1,12.382a14.4,14.4,0,0,0,11.518,6.911c7.17.374,14.715-4.607,21.136-1.411,4.809,2.39,6.537,8.236,8.408,13.246a65.828,65.828,0,0,0,47.024,40.458c26.924,5.759,63.351-7.285,69.4-32.827A36.483,36.483,0,0,0,592.285,376.575Z" transform="translate(319.135 6995.195)" fill="#d9bba2"/>
    <path id="Path_158" data-name="Path 158" d="M458.206,337.829a.49.49,0,0,0-.259-.806c-5.99-1.641-13.448,5.212-17.278,9.3a36.159,36.159,0,0,0-5.759,8.466,14.8,14.8,0,0,0,1.353,3.052c.259.432.547.806.835,1.21a36.281,36.281,0,0,1,6.94-10.942,35.728,35.728,0,0,1,7.746-6.191,18.6,18.6,0,0,0,6.421-4.089Z" transform="translate(319.573 7008.891)" fill="#b8896a"/>
    <path id="Path_159" data-name="Path 159" d="M435.07,344.767a35.136,35.136,0,0,1,6.1-4.175c5.27-2.88,11.144-3.225,16.443-5.615a.662.662,0,0,0,0-1.3c-5.759-1.757-13.246.345-19.668,4.089a32.073,32.073,0,0,0-2.879,7Z" transform="translate(319.874 7001.895)" fill="#b8896a"/>
    <path id="Path_160" data-name="Path 160" d="M457.509,343.565l.518-1.9a1.094,1.094,0,0,0-.922-1.3,1.353,1.353,0,0,0-2.044.4l-.317.633a2.042,2.042,0,0,0-.317.49l-.259.72c-.893,2.016-1.785,4.147-2.563,6.364-1.67,2.649-3.34,5.3-5.126,7.861l.749.317c4.809,2.39,6.537,8.236,8.408,13.246.317.835.662,1.641,1.008,2.448-.432-2.534-.864-5.068-1.181-7.631a2.225,2.225,0,0,0,0-.432c0-1.785-.2-3.571-.374-5.356a39.739,39.739,0,0,1,.2-6.565,40.491,40.491,0,0,1,1.411-6.508A15.372,15.372,0,0,0,457.509,343.565Z" transform="translate(341.32 7015.074)" fill="#b8896a"/>
    <path id="Path_161" data-name="Path 161" d="M461.262,344.462a11.779,11.779,0,0,0-2.419-3.34,33.258,33.258,0,0,0-2.419-3.2.518.518,0,0,0-.893.4,9.79,9.79,0,0,0,1.555,4.233,6.392,6.392,0,0,0,3.081,3.139C460.887,345.96,461.434,345.1,461.262,344.462Z" transform="translate(358.329 7010.75)" fill="#d2b196"/>
    <path id="Path_162" data-name="Path 162" d="M456.5,341.391a.634.634,0,0,0-.95.777l2.1,3.571a13.824,13.824,0,0,0,2.16,3.139c.461.432,1.382,0,1.267-.6A12.843,12.843,0,0,0,456.5,341.391Z" transform="translate(358.254 7017.336)" fill="#d2b196"/>
    <path id="Path_163" data-name="Path 163" d="M466.717,348.17a12.983,12.983,0,0,0-3.052-2.678,32.951,32.951,0,0,1-3.369-2.62.662.662,0,0,0-.979.835c1.44,2.275,3.283,5.759,6.191,6.191a1.152,1.152,0,0,0,1.209-1.728Z" transform="translate(365.313 7020.117)" fill="#d2b196"/>
    <path id="Path_164" data-name="Path 164" d="M467.1,351.941a30.168,30.168,0,0,0-3.686-2.419,24.394,24.394,0,0,1-3.2-3.023.672.672,0,0,0-1.094.72,12.383,12.383,0,0,0,2.88,4.147,7.6,7.6,0,0,0,4.406,2.39C467.5,353.784,467.643,352.546,467.1,351.941Z" transform="translate(364.992 7026.799)" fill="#d2b196"/>
    <path id="Path_165" data-name="Path 165" d="M474.221,351.25a32.922,32.922,0,0,0-4.435-2.419c-1.641-.806-3.11-2.044-4.809-2.736a.691.691,0,0,0-.893.979,12.238,12.238,0,0,0,9.7,5.385.72.72,0,0,0,.432-1.209Z" transform="translate(374.223 7026.281)" fill="#d2b196"/>
    <path id="Path_166" data-name="Path 166" d="M474.155,351.859a24.18,24.18,0,0,0-3.628-1.123,16.616,16.616,0,0,1-3.4-1.785c-.979-.633-1.814.835-1.123,1.613,1.756,1.872,5.3,4.176,8.005,3.34a1.123,1.123,0,0,0,.144-2.044Z" transform="translate(377.543 7031.488)" fill="#d2b196"/>
  </g>
</svg>
