<svg xmlns="http://www.w3.org/2000/svg" width="1108.585" height="619.13" viewBox="0 0 1108.585 619.13">
  <g id="Demo_FTC" data-name="Demo FTC" transform="translate(-406 -228.436)">
    <g id="Demo_Button" data-name="Demo Button" transform="translate(0 -17.328)">
      <g id="gcb3754e4fc_0_116.2" transform="translate(406 245.764)">
        <path id="Path_1478" data-name="Path 1478" d="M611.325,442.042h0c0-29.653,18.635-53.691,41.622-53.691h1025.34c11.039,0,21.626,5.657,29.432,15.726s12.191,23.726,12.191,37.965V953.79c0,29.653-18.635,53.691-41.623,53.691H652.947c-22.987,0-41.622-24.038-41.622-53.691Z" transform="translate(-611.325 -388.351)" fill="#101030" fill-rule="evenodd" opacity="0.8"/>
      </g>
      <g id="Rectangle_476" data-name="Rectangle 476" transform="translate(803 631)" fill="#fff" stroke="#707070" stroke-width="1">
        <rect width="314" height="141" stroke="none"/>
        <rect x="0.5" y="0.5" width="313" height="140" fill="none"/>
      </g>
      <text id="Demo" transform="translate(901 715)" font-size="40" font-family="Prata-Regular, Prata"><tspan x="0" y="0">Demo</tspan></text>
      <text id="Federal_Trade_Commission_Redesign" data-name="Federal Trade Commission 
Redesign" transform="translate(960 401)" fill="#fff" font-size="60" font-family="Poppins-Bold, Poppins" font-weight="700"><tspan x="-420.69" y="0">Federal Trade Commission </tspan><tspan x="-143.07" y="90">Redesign</tspan></text>
      <text id="Demo-2" data-name="Demo" transform="translate(901 715)" font-size="40" font-family="Prata-Regular, Prata"><tspan x="0" y="0">Demo</tspan></text>
    </g>
  </g>
</svg>
