<svg xmlns="http://www.w3.org/2000/svg" width="63.369" height="58.363" viewBox="0 0 63.369 58.363">
  <path id="icons8-facebook_1_" data-name="icons8-facebook (1)" d="M34.685,3C17.186,3,3,16.133,3,32.332,3,47.037,14.7,59.179,29.949,61.3V40.106H22.11V32.4h7.839v-5.13c0-8.494,4.47-12.223,12.1-12.223a47.518,47.518,0,0,1,6.5.365v6.73h-5.2c-3.238,0-4.368,2.841-4.368,6.044V32.4h9.488l-1.288,7.71h-8.2V61.363c15.465-1.943,27.4-14.183,27.4-29.032C66.369,16.133,52.183,3,34.685,3Z" transform="translate(-3 -3)" fill="#fff"/>
</svg>
