<svg xmlns="http://www.w3.org/2000/svg" width="63.369" height="54.885" viewBox="0 0 63.369 54.885">
  <path id="icons8-facebook_1_" data-name="icons8-facebook (1)" d="M34.685,3C17.186,3,3,15.35,3,30.583,3,44.413,14.7,55.831,29.949,57.826V37.894H22.11V30.644h7.839V25.819c0-7.988,4.47-11.495,12.1-11.495a50.487,50.487,0,0,1,6.5.344V21h-5.2c-3.238,0-4.368,2.672-4.368,5.683v3.963h9.488l-1.288,7.251h-8.2v19.99c15.465-1.827,27.4-13.338,27.4-27.3C66.369,15.35,52.183,3,34.685,3Z" transform="translate(-3 -3)" fill="#fff"/>
</svg>
