<svg xmlns="http://www.w3.org/2000/svg" width="52.837" height="55.854" viewBox="0 0 52.837 55.854">
  <path id="nstagram_icon" data-name="nstagram icon" d="M18.611,3C10,3,3,10.4,3,19.5V42.351c0,9.1,7,16.5,15.611,16.5H40.226c8.61,0,15.611-7.4,15.611-16.5V19.5c0-9.1-7-16.5-15.611-16.5ZM43.829,13.155a2.543,2.543,0,1,1-2.4,2.539A2.48,2.48,0,0,1,43.829,13.155Zm-14.41,3.808c7.289,0,13.209,6.258,13.209,13.963S36.708,44.89,29.418,44.89,16.209,38.632,16.209,30.927,22.129,16.963,29.418,16.963Zm0,2.539c-5.956,0-10.808,5.128-10.808,11.425s4.851,11.425,10.808,11.425,10.808-5.128,10.808-11.425S35.375,19.5,29.418,19.5Z" transform="translate(-3 -3)" fill="#fff"/>
</svg>
