<svg xmlns="http://www.w3.org/2000/svg" width="52.837" height="52.375" viewBox="0 0 52.837 52.375">
  <path id="nstagram_icon" data-name="nstagram icon" d="M18.611,3A15.558,15.558,0,0,0,3,18.474V39.9A15.558,15.558,0,0,0,18.611,55.375H40.226A15.558,15.558,0,0,0,55.837,39.9V18.474A15.558,15.558,0,0,0,40.226,3Zm25.218,9.523a2.381,2.381,0,1,1-2.4,2.381A2.4,2.4,0,0,1,43.829,12.523Zm-14.41,3.571A13.094,13.094,0,1,1,16.209,29.188,13.16,13.16,0,0,1,29.418,16.094Zm0,2.381A10.714,10.714,0,1,0,40.226,29.188,10.777,10.777,0,0,0,29.418,18.474Z" transform="translate(-3 -3)" fill="#fff"/>
</svg>
