<svg xmlns="http://www.w3.org/2000/svg" width="54.951" height="58.363" viewBox="0 0 54.951 58.363">
  <path id="icons8-linkedin" d="M52.409,4H10.542A6.757,6.757,0,0,0,4,10.948V55.415a6.757,6.757,0,0,0,6.542,6.948H52.409a6.757,6.757,0,0,0,6.542-6.948V10.948A6.757,6.757,0,0,0,52.409,4Zm-31.4,22.234v26.4s-5.888,6.6-7.85,0,0-26.4,0-26.4Zm-7.85-7.684c0-1.945,1.57-3.432,3.925-3.432a3.613,3.613,0,0,1,3.925,3.432c0,1.945-1.465,3.516-3.925,3.516A3.622,3.622,0,0,1,13.158,18.549ZM49.792,52.636h-7.85V38.74c0-2.779-1.308-5.558-4.579-5.614h-.1c-3.166,0-4.475,2.863-4.475,5.614v13.9h-7.85v-26.4h7.85v3.557a9.629,9.629,0,0,1,7.6-3.557c5.194,0,9.407,3.794,9.407,11.478Z" transform="translate(-4 -4)" fill="#fff"/>
</svg>
