<svg xmlns="http://www.w3.org/2000/svg" width="54.951" height="54.885" viewBox="0 0 54.951 54.885">
  <path id="icons8-linkedin" d="M52.409,4H10.542A6.54,6.54,0,0,0,4,10.534V52.351a6.54,6.54,0,0,0,6.542,6.534H52.409a6.54,6.54,0,0,0,6.542-6.534V10.534A6.54,6.54,0,0,0,52.409,4Zm-31.4,20.909V49.737s-5.888,6.207-7.85,0,0-24.829,0-24.829Zm-7.85-7.227c0-1.829,1.57-3.228,3.925-3.228s3.833,1.4,3.925,3.228c0,1.829-1.465,3.306-3.925,3.306C14.728,20.988,13.158,19.512,13.158,17.682ZM49.792,49.737h-7.85V36.67c0-2.614-1.308-5.227-4.579-5.279h-.1c-3.166,0-4.475,2.692-4.475,5.279V49.737h-7.85V24.909h7.85v3.345a9.8,9.8,0,0,1,7.6-3.345c5.194,0,9.407,3.568,9.407,10.794Z" transform="translate(-4 -4)" fill="#fff"/>
</svg>
